<svg xmlns="http://www.w3.org/2000/svg" viewBox="0 0 288.01 474.79"><title>check</title><path d="M264.8,495.38a20,20,0,0,1-17.34-10,1413.79,1413.79,0,0,1-85.83-177.27,1527,1527,0,0,1-54.91-163,20,20,0,0,1,38.56-10.63,1489.4,1489.4,0,0,0,53.46,158.7q18.87,46.95,40.85,92a10.11,10.11,0,0,0,19.08-2.92c7-46.49,15.42-94.1,33.54-159.35,24.71-89,36.75-120.47,63.11-189.44a20,20,0,0,1,37.36,14.28C366.78,115.5,355,146.42,330.75,233.6c-21.06,75.82-28.26,125.12-36.6,182.21-2.9,19.8-5.89,40.28-9.62,62.84a20,20,0,0,1-16.17,16.41A19.56,19.56,0,0,1,264.8,495.38Z" transform="translate(-105.99 -20.6)"/></svg>