<svg xmlns="http://www.w3.org/2000/svg" viewBox="0 0 478.24 478.5"><title>cross</title><path d="M294.64,233.64,482.78,45.51c7.68-7.69,8.26-20.22.84-28.15a20,20,0,0,0-28.76-.5l-188.5,188.5a23.15,23.15,0,0,1-32.72,0L46,17.72C38.32,10,25.79,9.46,17.86,16.88a20,20,0,0,0-.5,28.76l188,188a23.15,23.15,0,0,1,0,32.72L16.75,455c-7.82,7.82-8.28,20.63-.54,28.52a20,20,0,0,0,28.43.15l189-189a23.15,23.15,0,0,1,32.72,0l188,188a20,20,0,0,0,28.43-.15c7.74-7.9,7.28-20.71-.54-28.52L294.64,266.36A23.15,23.15,0,0,1,294.64,233.64Z" transform="translate(-10.64 -11)"/></svg>