<svg xmlns="http://www.w3.org/2000/svg" viewBox="0 0 490 500"><title>palette</title><path d="M246,500C51.85,500-61,259.73,46.86,103.72,168.24-71.8,439.51-12.77,487.49,192.32c11.28,48.25,19.13,133.49-48.18,136.82-29.78,1.47-60.21-15.85-88.43-22.74-48-11.71-91.54,2.62-80.35,60.69,6,31.14,39,60.64,32.84,93.56C297.64,491.46,272.92,500,246,500Zm2.07-479.8C112,20.2,5.36,148.64,28.39,284.44A226.76,226.76,0,0,0,136.77,441.38c39.95,23.46,160.81,74,136.75-11.61-8.76-31.2-31.65-54.79-27.4-90.78,6.65-56.29,58.34-66.79,106.28-55.91,25.1,5.69,58.35,27.42,84.52,23.25,42.74-6.82,37.76-55.1,32.28-90.43-12.43,69.49-112.58,67.29-123-1.44-9.49-62.27,71.61-98,110.55-48.54C424.55,79.44,342.45,20.2,248.11,20.2Zm159.3,144.33c-51.84,0-52,81.54,0,81.43S459.36,164.53,407.41,164.53ZM136.56,401.41c-80.5,0-80.41-126.63,0-126.8S217.61,401.41,136.56,401.41Zm0-104.11c-51.84,0-52,81.54,0,81.42S188.51,297.3,136.56,297.3ZM98.39,273.63c-74.79,0-84-115.79-8.07-125.68C175.23,136.88,184.33,273.63,98.39,273.63ZM69.61,238.68c37.94,35.26,93.9-19.14,57.56-56.9s-95.55,21.59-57.56,56.9Zm246.08-74.13c-80.5,0-80.41-126.62,0-126.8S396.75,164.55,315.69,164.55Zm0-104.11c-51.84,0-52,81.54,0,81.42S367.64,60.44,315.69,60.44ZM181.49,164.55c-80.5,0-80.4-126.63,0-126.8S262.55,164.55,181.49,164.55Zm0-104.11c-51.84,0-52,81.54,0,81.42S233.45,60.44,181.49,60.44Z" transform="translate(-5 0)"/></svg>