<svg xmlns="http://www.w3.org/2000/svg" viewBox="0 0 483.06 356.95"><title>send-01</title><path d="M51.7,429a41.26,41.26,0,0,1-41.29-41.26v-82A33.44,33.44,0,0,1,42,272.18l198.22-21.77L40.16,228.24a31.61,31.61,0,0,1-29.75-31.69V113.28A41.27,41.27,0,0,1,65,74.24L465.58,211.46a41.27,41.27,0,0,1,0,78.08L65,426.76A41.07,41.07,0,0,1,51.7,429ZM50.41,311.5v76.22a1.26,1.26,0,0,0,1.67,1.2L452.61,251.69c.54-.18.86-.29.86-1.19s-.32-1-.86-1.19L52.08,112.08a1.17,1.17,0,0,0-1.15.17,1.14,1.14,0,0,0-.52,1v75.85L365.08,224v0c5.05.66,19.35,4.48,19.34,26.48s-14.3,25.76-19.36,26.41v0Zm309.9-47.79.63.07Zm.66-26.56-.66.07Z" transform="translate(-10.41 -72.02)"/></svg>