<svg xmlns="http://www.w3.org/2000/svg" viewBox="0 0 485 480.76"><title>spinner</title><path d="M292,487.76A30,30,0,0,1,286,428.35a182.4,182.4,0,0,0,77.29-36.18,30,30,0,1,1,37.45,46.88A243,243,0,0,1,298,487.16,30.83,30.83,0,0,1,292,487.76Zm-89.59-1a30,30,0,0,1-6.66-.75A242.89,242.89,0,0,1,94,435.59a30,30,0,0,1,38.5-46A182.67,182.67,0,0,0,209,427.49a30,30,0,0,1-6.6,59.26Zm236.4-110.56a30,30,0,0,1-26.68-43.67,180.49,180.49,0,0,0,19.92-83V249a30,30,0,1,1,60,0v.47a243.34,243.34,0,0,1-26.51,110.36A30,30,0,0,1,438.76,376.19ZM58.11,371.91a30,30,0,0,1-27-16.94A240.28,240.28,0,0,1,7,249.5c0-1.82,0-3.63.06-5.44a30,30,0,0,1,60,1.33c0,1.37,0,2.74,0,4.11a180.68,180.68,0,0,0,18.1,79.34,30,30,0,0,1-27,43.07ZM443,191.44a30,30,0,0,1-27.32-17.56A184,184,0,0,0,363,106.58a30,30,0,1,1,37.35-46.95A244.22,244.22,0,0,1,470.25,149,30,30,0,0,1,443,191.44ZM57.86,187.53a30,30,0,0,1-27-43A244.33,244.33,0,0,1,102.53,56.6a30,30,0,1,1,36.39,47.7,184,184,0,0,0-54,66.23A30,30,0,0,1,57.86,187.53ZM301.34,73.37a29.69,29.69,0,0,1-7.31-.91,184.31,184.31,0,0,0-85.45-.86,30,30,0,1,1-13.39-58.49,244.34,244.34,0,0,1,113.42,1.15,30,30,0,0,1-7.27,59.11Z" transform="translate(-7 -7)"/></svg>