<svg xmlns="http://www.w3.org/2000/svg" viewBox="0 0 495.12 442.43"><defs><style>.a{fill:none;}</style></defs><title>warning</title><path class="a" d="M277.24,64.92l196,339.53A31.45,31.45,0,0,1,446,451.63H54a31.45,31.45,0,0,1-27.23-47.18l196-339.53A31.46,31.46,0,0,1,277.24,64.92Z" transform="translate(-2.44 -29.2)"/><path d="M446,471.63H54A51.46,51.46,0,0,1,9.42,394.45l196-339.53a51.46,51.46,0,0,1,89.12,0l196,339.53A51.46,51.46,0,0,1,446,471.63ZM250,69.2a11.24,11.24,0,0,0-9.92,5.72l-196,339.53A11.46,11.46,0,0,0,54,431.63H446a11.46,11.46,0,0,0,9.91-17.18l-196-339.53A11.24,11.24,0,0,0,250,69.2Z" transform="translate(-2.44 -29.2)"/><path d="M228.55,292.57,222.35,200q-1.74-27.06-1.75-38.86,0-16.05,8.44-25t22.2-9q16.68,0,22.3,11.51t5.62,33.16a250.69,250.69,0,0,1-1.36,25.91L269.46,293q-1.35,17-5.81,26.1t-14.74,9.09q-10.47,0-14.54-8.8T228.55,292.57ZM250.08,419.8a30.56,30.56,0,0,1-20.65-7.64q-8.84-7.64-8.83-21.36A27.75,27.75,0,0,1,229,370.4,28.1,28.1,0,0,1,249.69,362a28.75,28.75,0,0,1,20.84,8.41,27.43,27.43,0,0,1,8.63,20.4q0,13.53-8.72,21.27A29.78,29.78,0,0,1,250.08,419.8Z" transform="translate(-2.44 -29.2)"/></svg>